<svg xmlns="http://www.w3.org/2000/svg" width="900" height="1600" viewBox="0 0 900 1600">
<defs>
 <linearGradient id="g" x1="0" y1="0" x2="1" y2="1"><stop stop-color="#15324a"/><stop offset="1" stop-color="#0e1d1a"/></linearGradient>
 <radialGradient id="light"><stop stop-color="#ffffff" stop-opacity=".13"/><stop offset="1" stop-color="#ffffff" stop-opacity="0"/></radialGradient>
 <pattern id="p" width="88" height="88" patternUnits="userSpaceOnUse"><path d="M0 44h88M44 0v88" stroke="#d3ad63" stroke-opacity=".08" stroke-width="1"/></pattern>
</defs>
<rect width="900" height="1600" rx="34" fill="url(#g)"/>
<rect x="38" y="38" width="824" height="1524" rx="22" fill="none" stroke="#d3ad63" stroke-opacity=".72" stroke-width="5"/>
<rect x="58" y="58" width="784" height="1484" rx="17" fill="none" stroke="#d3ad63" stroke-opacity=".25" stroke-width="2"/>
<rect x="58" y="58" width="784" height="1484" fill="url(#p)"/>
<circle cx="450" cy="760" r="370" fill="url(#light)"/>
<g opacity=".96"><ellipse cx="450" cy="520" rx="235" ry="92" fill="none" stroke="#d3ad63" stroke-width="28"/><path d="M215 520v390c0 52 105 95 235 95s235-43 235-95V520M215 710c0 52 105 95 235 95s235-43 235-95M215 900c0 52 105 95 235 95s235-43 235-95" fill="none" stroke="#d3ad63" stroke-width="28" stroke-linecap="round"/></g>
<path d="M225 1250h450" stroke="#d3ad63" stroke-opacity=".65" stroke-width="4"/>
<circle cx="450" cy="1250" r="12" fill="#d3ad63"/>
<path d="M92 104V250M808 104V250M92 1350v146M808 1350v146" stroke="#d3ad63" stroke-opacity=".62" stroke-width="6" stroke-linecap="round"/>
</svg>