<svg xmlns="http://www.w3.org/2000/svg" width="900" height="1600" viewBox="0 0 900 1600">
<defs>
 <linearGradient id="g" x1="0" y1="0" x2="1" y2="1"><stop stop-color="#70483f"/><stop offset="1" stop-color="#0e1d1a"/></linearGradient>
 <radialGradient id="light"><stop stop-color="#ffffff" stop-opacity=".13"/><stop offset="1" stop-color="#ffffff" stop-opacity="0"/></radialGradient>
 <pattern id="p" width="88" height="88" patternUnits="userSpaceOnUse"><path d="M0 44h88M44 0v88" stroke="#d3b07a" stroke-opacity=".08" stroke-width="1"/></pattern>
</defs>
<rect width="900" height="1600" rx="34" fill="url(#g)"/>
<rect x="38" y="38" width="824" height="1524" rx="22" fill="none" stroke="#d3b07a" stroke-opacity=".72" stroke-width="5"/>
<rect x="58" y="58" width="784" height="1484" rx="17" fill="none" stroke="#d3b07a" stroke-opacity=".25" stroke-width="2"/>
<rect x="58" y="58" width="784" height="1484" fill="url(#p)"/>
<circle cx="450" cy="760" r="370" fill="url(#light)"/>
<g opacity=".96"><rect x="240" y="450" width="420" height="610" rx="24" fill="none" stroke="#d3b07a" stroke-width="28"/><path d="M310 570h280M310 670h280M310 770h140M310 900h280M310 980h210" fill="none" stroke="#d3b07a" stroke-width="24" stroke-linecap="round"/><circle cx="555" cy="770" r="62" fill="none" stroke="#d3b07a" stroke-width="24"/></g>
<path d="M225 1250h450" stroke="#d3b07a" stroke-opacity=".65" stroke-width="4"/>
<circle cx="450" cy="1250" r="12" fill="#d3b07a"/>
<path d="M92 104V250M808 104V250M92 1350v146M808 1350v146" stroke="#d3b07a" stroke-opacity=".62" stroke-width="6" stroke-linecap="round"/>
</svg>