<svg xmlns="http://www.w3.org/2000/svg" viewBox="0 0 96 96">
<defs>
 <linearGradient id="g" x1="0" y1="0" x2="1" y2="1"><stop stop-color="#2f7954"/><stop offset="1" stop-color="#174a34"/></linearGradient>
 <linearGradient id="p" x1="0" y1="0" x2="0" y2="1"><stop stop-color="#fffdf4"/><stop offset="1" stop-color="#eef5e9"/></linearGradient>
</defs>
<circle cx="48" cy="48" r="45" fill="#fffdf7" stroke="#d9c28b" stroke-width="3"/>
<path d="M18 28c10-8 20-10 30-2v46c-10-7-20-7-30 0z" fill="url(#p)" stroke="#2f7954" stroke-width="3" stroke-linejoin="round"/>
<path d="M78 28c-10-8-20-10-30-2v46c10-7 20-7 30 0z" fill="url(#p)" stroke="#2f7954" stroke-width="3" stroke-linejoin="round"/>
<path d="M48 26v46" stroke="#b8944f" stroke-width="3" stroke-linecap="round"/>
<path d="M23 20c-7 1-12 6-13 13 7-1 12-5 13-13zm-3 8c-5 5-7 11-4 18 6-4 8-10 4-18z" fill="url(#g)"/>
<path d="M73 20c7 1 12 6 13 13-7-1-12-5-13-13zm3 8c5 5 7 11 4 18-6-4-8-10-4-18z" fill="url(#g)"/>
<path d="M31 38h10M31 46h10M55 38h10M55 46h10" stroke="#7ca087" stroke-width="2.5" stroke-linecap="round"/>
<circle cx="48" cy="80" r="3.5" fill="#b8944f"/>
</svg>