<svg xmlns="http://www.w3.org/2000/svg" viewBox="0 0 160 160" fill="none">
  <path d="M144 142C106 113 82 84 64 37" stroke="#244f3f" stroke-width="3" stroke-linecap="round" opacity=".75"/>
  <path d="M111 112c4-21 19-31 37-35-6 18-18 32-37 35Z" fill="#315f4d" opacity=".35"/>
  <path d="M88 88c1-20 13-34 31-41-2 19-13 34-31 41Z" fill="#315f4d" opacity=".32"/>
  <path d="M68 57c-2-18 6-33 22-42 2 18-6 33-22 42Z" fill="#315f4d" opacity=".30"/>
  <path d="M101 108c-20-3-32-16-38-35 19 3 33 15 38 35Z" fill="#a97b35" opacity=".24"/>
  <path d="M79 82c-19-2-32-13-39-30 18 1 31 12 39 30Z" fill="#a97b35" opacity=".20"/>
  <path d="M54 46C37 42 26 31 21 14c17 4 29 14 33 32Z" fill="#a97b35" opacity=".18"/>
</svg>
