<svg xmlns="http://www.w3.org/2000/svg" width="1600" height="900" viewBox="0 0 1600 900">
<defs><linearGradient id="bg" x1="0" y1="0" x2="1" y2="1"><stop stop-color="#fbf8f1"/><stop offset="1" stop-color="#eee7da"/></linearGradient><linearGradient id="sun"><stop stop-color="#fff" stop-opacity=".9"/><stop offset="1" stop-color="#fff" stop-opacity="0"/></linearGradient></defs>
<rect width="1600" height="900" fill="url(#bg)"/>
<g fill="none" stroke="#b79864" stroke-opacity=".22" stroke-width="3">
<path d="M70 780V130h280v650M1250 780V130h280v650M350 220h900M350 675h900"/>
<path d="M410 675V265h170v410M620 675V265h170v410M830 675V265h170v410M1040 675V265h150v410"/>
<path d="M435 315h120M435 365h120M435 415h120M435 465h120M435 515h120M435 565h120M645 315h120M645 365h120M645 415h120M645 465h120M645 515h120M645 565h120M855 315h120M855 365h120M855 415h120M855 465h120M855 515h120M855 565h120M1065 315h100M1065 365h100M1065 415h100M1065 465h100M1065 515h100M1065 565h100"/>
<path d="M770 220V90h60v130M690 220c0-105 55-165 110-165s110 60 110 165"/>
</g>
<ellipse cx="800" cy="315" rx="560" ry="360" fill="url(#sun)" opacity=".65"/>
</svg>