<svg xmlns="http://www.w3.org/2000/svg" viewBox="0 0 1200 300" preserveAspectRatio="none">
  <defs>
    <linearGradient id="bg" x1="0" y1="0" x2="1" y2="1"><stop stop-color="#fffdf6"/><stop offset="1" stop-color="#edf4df"/></linearGradient>
    <radialGradient id="wash"><stop stop-color="#dfe9cf" stop-opacity=".7"/><stop offset="1" stop-color="#dfe9cf" stop-opacity="0"/></radialGradient>
  </defs>
  <rect width="1200" height="300" rx="32" fill="url(#bg)"/>
  <ellipse cx="180" cy="160" rx="230" ry="170" fill="url(#wash)"/>
  <ellipse cx="1040" cy="140" rx="230" ry="170" fill="url(#wash)"/>
  <g opacity=".75">
    <path d="M-20 290C100 230 170 155 230 18" stroke="#b79044" stroke-width="4" fill="none"/>
    <path d="M1220 295C1105 240 1035 155 975 15" stroke="#b79044" stroke-width="4" fill="none"/>
    <g fill="#6e8f63">
      <ellipse cx="46" cy="258" rx="42" ry="14" transform="rotate(-25 46 258)"/>
      <ellipse cx="98" cy="220" rx="38" ry="13" transform="rotate(25 98 220)"/>
      <ellipse cx="133" cy="180" rx="38" ry="13" transform="rotate(-30 133 180)"/>
      <ellipse cx="173" cy="138" rx="34" ry="12" transform="rotate(24 173 138)"/>
      <ellipse cx="205" cy="93" rx="31" ry="11" transform="rotate(-30 205 93)"/>
      <ellipse cx="1154" cy="258" rx="42" ry="14" transform="rotate(25 1154 258)"/>
      <ellipse cx="1102" cy="220" rx="38" ry="13" transform="rotate(-25 1102 220)"/>
      <ellipse cx="1067" cy="180" rx="38" ry="13" transform="rotate(30 1067 180)"/>
      <ellipse cx="1027" cy="138" rx="34" ry="12" transform="rotate(-24 1027 138)"/>
      <ellipse cx="995" cy="93" rx="31" ry="11" transform="rotate(30 995 93)"/>
    </g>
  </g>
</svg>
