<svg xmlns="http://www.w3.org/2000/svg" viewBox="0 0 420 300">
  <g fill="none" stroke-linecap="round">
    <path d="M12 278C110 238 157 162 204 34" stroke="#b88a37" stroke-width="3" opacity=".65"/>
    <path d="M30 286C135 245 208 185 286 60" stroke="#6f8f63" stroke-width="2.4" opacity=".55"/>
  </g>
  <g fill="#6f8f63" opacity=".82">
    <ellipse cx="62" cy="250" rx="34" ry="12" transform="rotate(-28 62 250)"/>
    <ellipse cx="104" cy="222" rx="31" ry="11" transform="rotate(23 104 222)"/>
    <ellipse cx="121" cy="188" rx="32" ry="12" transform="rotate(-33 121 188)"/>
    <ellipse cx="157" cy="159" rx="28" ry="10" transform="rotate(18 157 159)"/>
    <ellipse cx="177" cy="122" rx="27" ry="10" transform="rotate(-35 177 122)"/>
    <ellipse cx="204" cy="89" rx="24" ry="9" transform="rotate(24 204 89)"/>
  </g>
  <g fill="#b9c99e" opacity=".7">
    <ellipse cx="178" cy="229" rx="35" ry="12" transform="rotate(-25 178 229)"/>
    <ellipse cx="215" cy="198" rx="30" ry="11" transform="rotate(22 215 198)"/>
    <ellipse cx="241" cy="163" rx="30" ry="11" transform="rotate(-27 241 163)"/>
    <ellipse cx="275" cy="128" rx="28" ry="10" transform="rotate(21 275 128)"/>
    <ellipse cx="300" cy="91" rx="26" ry="9" transform="rotate(-28 300 91)"/>
  </g>
</svg>
