<svg xmlns="http://www.w3.org/2000/svg" viewBox="0 0 96 96" role="img" aria-labelledby="title desc">
  <title id="title">DocShare Pro</title>
  <desc id="desc">Biểu tượng sách mở và lá cây màu xanh vàng</desc>
  <defs>
    <linearGradient id="book" x1="0" x2="1" y1="0" y2="1">
      <stop offset="0" stop-color="#0f5b3d"/>
      <stop offset="1" stop-color="#2b865c"/>
    </linearGradient>
    <linearGradient id="gold" x1="0" x2="1">
      <stop offset="0" stop-color="#d6a43d"/>
      <stop offset="1" stop-color="#b97918"/>
    </linearGradient>
  </defs>

  <rect x="4" y="4" width="88" height="88" rx="22" fill="#fffdf6"/>
  <path d="M18 30c10-2 19 1 28 8v38c-9-7-18-10-28-8V30z" fill="url(#book)"/>
  <path d="M78 30c-10-2-19 1-28 8v38c9-7 18-10 28-8V30z" fill="#f7f0d8" stroke="#c78f2a" stroke-width="3"/>
  <path d="M48 38v38" stroke="#c78f2a" stroke-width="3" stroke-linecap="round"/>
  <path d="M27 20c8 1 14 5 18 12-9 0-16-4-18-12z" fill="#2f8a5f"/>
  <path d="M69 18c-8 2-14 7-17 15 9-1 15-6 17-15z" fill="#5b9b57"/>
  <path d="M29 45h10M29 53h10M57 45h10M57 53h10" stroke="url(#gold)" stroke-width="3" stroke-linecap="round"/>
</svg>
