<svg xmlns="http://www.w3.org/2000/svg" viewBox="0 0 512 512">
  <defs>
    <linearGradient id="night" x1="0" y1="0" x2="0" y2="1"><stop stop-color="#101743"/><stop offset="1" stop-color="#06071d"/></linearGradient>
    <filter id="glow"><feGaussianBlur stdDeviation="5" result="b"/><feMerge><feMergeNode in="b"/><feMergeNode in="SourceGraphic"/></feMerge></filter>
  </defs>
  <rect width="512" height="512" rx="64" fill="url(#night)"/>
  <g fill="none" stroke-linecap="round" filter="url(#glow)">
    <g stroke="#ffda70" stroke-width="7" transform="translate(155 176)">
      <path d="M0 0v-70M0 0l51-48M0 0l70 5M0 0l48 53M0 0l-8 71M0 0l-55 45M0 0l-69-10M0 0l-42-56"/>
    </g>
    <g stroke="#ff6e95" stroke-width="8" transform="translate(348 142)">
      <path d="M0 0v-62M0 0l45-42M0 0l63 5M0 0l40 48M0 0l-7 62M0 0l-47 40M0 0l-61-10M0 0l-38-47"/>
    </g>
    <g stroke="#7edcff" stroke-width="8" transform="translate(270 313)">
      <path d="M0 0v-72M0 0l53-50M0 0l73 6M0 0l47 55M0 0l-8 72M0 0l-55 47M0 0l-70-11M0 0l-44-56"/>
    </g>
  </g>
  <path d="M0 420c84-41 164-16 237 10 75 27 157 30 275-10v92H0z" fill="#0b1931"/>
  <g fill="#fff7d3"><circle cx="76" cy="87" r="5"/><circle cx="440" cy="252" r="5"/><circle cx="93" cy="319" r="6"/></g>
</svg>
