<svg xmlns="http://www.w3.org/2000/svg" viewBox="0 0 512 512">
  <defs>
    <radialGradient id="bg" cx="50%" cy="45%" r="60%"><stop offset="0" stop-color="#fff8c7"/><stop offset=".28" stop-color="#ffd86b"/><stop offset=".58" stop-color="#ff8d47"/><stop offset="1" stop-color="#28174f"/></radialGradient>
    <linearGradient id="ray" x1="0" x2="1"><stop stop-color="#fff5c2"/><stop offset="1" stop-color="#ff6b79"/></linearGradient>
    <filter id="glow"><feGaussianBlur stdDeviation="8" result="b"/><feMerge><feMergeNode in="b"/><feMergeNode in="SourceGraphic"/></feMerge></filter>
  </defs>
  <rect width="512" height="512" rx="64" fill="#170e31"/>
  <circle cx="256" cy="245" r="152" fill="url(#bg)" opacity=".9" filter="url(#glow)"/>
  <g stroke="url(#ray)" stroke-linecap="round" opacity=".9">
    <path d="M256 42v94M256 354v116M54 245h96M364 245h102M111 94l71 72M340 324l80 80M401 92l-69 76M179 328l-79 79" stroke-width="15"/>
    <path d="M165 55l34 86M314 369l37 88M61 161l87 35M362 292l91 39M375 48l-38 92M173 371l-39 87" stroke-width="8"/>
  </g>
  <circle cx="256" cy="245" r="76" fill="#fff8d8"/>
  <circle cx="256" cy="245" r="45" fill="#ffd15a"/>
  <g fill="#fff6c8">
    <circle cx="116" cy="268" r="7"/><circle cx="395" cy="216" r="9"/><circle cx="318" cy="102" r="6"/><circle cx="205" cy="404" r="7"/>
  </g>
</svg>
