<svg xmlns="http://www.w3.org/2000/svg" viewBox="0 0 512 512">
  <defs>
    <linearGradient id="sea" x1="0" y1="0" x2="0" y2="1"><stop stop-color="#e8fbff"/><stop offset="1" stop-color="#5eb4c7"/></linearGradient>
    <linearGradient id="hull" x1="0" x2="1"><stop stop-color="#fffdf2"/><stop offset=".7" stop-color="#d7efe9"/><stop offset="1" stop-color="#2f7b64"/></linearGradient>
    <linearGradient id="gold" x1="0" x2="1"><stop stop-color="#f8df8b"/><stop offset="1" stop-color="#bd7a19"/></linearGradient>
  </defs>
  <rect width="512" height="512" rx="64" fill="url(#sea)"/>
  <circle cx="405" cy="92" r="45" fill="#fff2a8" opacity=".9"/>
  <path d="M0 348c74-35 137-25 206 0s135 29 201-5 105-25 105-25v194H0z" fill="#267b91"/>
  <path d="M0 389c87-31 148-17 216 9s139 23 209-10 87-16 87-16v140H0z" fill="#155d76" opacity=".85"/>
  <path d="M92 323h337l-46 88H151z" fill="url(#hull)" stroke="#1e5d51" stroke-width="8"/>
  <path d="M196 170h154l53 151H154z" fill="#f8fff9" stroke="#2d6f5f" stroke-width="8"/>
  <path d="M238 199h76v122h-76z" fill="#bce6df"/>
  <path d="M173 282h208" stroke="url(#gold)" stroke-width="14"/>
  <path d="M272 89v95" stroke="#2c5e55" stroke-width="10"/>
  <path d="M273 94l94 78h-94z" fill="#fff7d6" stroke="#c7902e" stroke-width="6"/>
  <g fill="#fff6c9"><circle cx="86" cy="112" r="7"/><circle cx="129" cy="75" r="5"/><circle cx="424" cy="175" r="7"/></g>
</svg>
