<svg xmlns="http://www.w3.org/2000/svg" viewBox="0 0 240 240"><g fill="none" stroke="#6f9a72" stroke-width="2" opacity=".35"><path d="M20 215c34-38 53-82 58-132"/><path d="M59 130c-24-5-35-18-34-39 22 2 34 15 34 39zm9-25c20-7 30-21 27-41-19 5-28 19-27 41z"/><path d="M192 24c-18 29-25 61-20 96"/><path d="M174 76c19-1 31-10 37-27-18-3-31 6-37 27zm0 22c-17 7-24 20-22 37 17-4 25-17 22-37z"/></g><g fill="#b8944f" opacity=".2"><circle cx="32" cy="34" r="3"/><circle cx="213" cy="198" r="4"/><circle cx="126" cy="164" r="2.5"/></g></svg>