<svg xmlns="http://www.w3.org/2000/svg" viewBox="0 0 1200 460" preserveAspectRatio="none"><defs><linearGradient id="a" x1="0" x2="1"><stop stop-color="#fffdf7"/><stop offset="1" stop-color="#f2f8ed"/></linearGradient></defs><rect x="2" y="2" width="1196" height="456" rx="30" fill="url(#a)" stroke="#bfd2b8" stroke-width="4"/><path d="M18 115C32 58 73 22 142 18M18 76c37 2 57-17 64-51M38 117c15-29 39-40 71-33M1182 345c-14 57-55 93-124 97m124-58c-37-2-57 17-64 51m44-92c-15 29-39 40-71 33" fill="none" stroke="#6f9a72" stroke-width="7" stroke-linecap="round" opacity=".78"/><g fill="#8db287"><ellipse cx="65" cy="40" rx="13" ry="27" transform="rotate(44 65 40)"/><ellipse cx="105" cy="35" rx="11" ry="23" transform="rotate(63 105 35)"/><ellipse cx="46" cy="80" rx="12" ry="25" transform="rotate(20 46 80)"/><ellipse cx="1135" cy="420" rx="13" ry="27" transform="rotate(224 1135 420)"/><ellipse cx="1095" cy="425" rx="11" ry="23" transform="rotate(243 1095 425)"/><ellipse cx="1154" cy="380" rx="12" ry="25" transform="rotate(200 1154 380)"/></g><path d="M180 17h780" stroke="#d8c9a6" stroke-width="2" stroke-dasharray="8 12" opacity=".7"/></svg>