<svg xmlns="http://www.w3.org/2000/svg" viewBox="0 0 1200 460" preserveAspectRatio="none"><rect x="2" y="2" width="1196" height="456" rx="26" fill="#fffdf7" stroke="#d8c9a6" stroke-width="4"/><path d="M35 35h1130v390H35z" fill="none" stroke="#dfe8d8" stroke-width="2"/><path d="M23 120V32c0-8 7-15 15-15h120" fill="none" stroke="#2f7954" stroke-width="7" stroke-linecap="round"/><path d="M1177 340v88c0 8-7 15-15 15h-120" fill="none" stroke="#2f7954" stroke-width="7" stroke-linecap="round"/><path d="M53 56c25-12 50-12 75 0v46c-25-12-50-12-75 0z" fill="#edf5e9" stroke="#6f9a72" stroke-width="3"/><path d="M128 56c-25-12-50-12-75 0v46c25-12 50-12 75 0" fill="none" stroke="#6f9a72" stroke-width="3"/><path d="M1072 358c25-12 50-12 75 0v46c-25-12-50-12-75 0z" fill="#edf5e9" stroke="#6f9a72" stroke-width="3"/><path d="M1147 358c-25-12-50-12-75 0v46c25-12 50-12 75 0" fill="none" stroke="#6f9a72" stroke-width="3"/><circle cx="183" cy="18" r="5" fill="#b8944f"/><circle cx="1017" cy="442" r="5" fill="#b8944f"/></svg>