<svg xmlns="http://www.w3.org/2000/svg" viewBox="0 0 1200 460" preserveAspectRatio="none"><defs><linearGradient id="b" x1="0" y1="0" x2="0" y2="1"><stop stop-color="#f3f8ef"/><stop offset="1" stop-color="#fffdf7"/></linearGradient></defs><rect x="2" y="2" width="1196" height="456" rx="34" fill="url(#b)" stroke="#b9cfb5" stroke-width="4"/><path d="M98 440V155C98 79 161 18 238 18h724c77 0 140 61 140 137v285" fill="none" stroke="#d6c394" stroke-width="7" opacity=".7"/><path d="M120 440V158c0-64 53-116 118-116h724c65 0 118 52 118 116v282" fill="none" stroke="#73967b" stroke-width="2" opacity=".6"/><path d="M73 414c18-64 58-98 119-109-5 64-46 99-119 109zm1052 0c-18-64-58-98-119-109 5 64 46 99 119 109z" fill="#dce9d7" stroke="#6f9a72" stroke-width="3"/></svg>