<svg xmlns="http://www.w3.org/2000/svg" viewBox="0 0 320 320"><defs><linearGradient id="main" x1="0" y1="0" x2="1" y2="1"><stop stop-color="#e7f3df"/><stop offset="1" stop-color="#688f5d"/></linearGradient><linearGradient id="ring"><stop stop-color="#688f5d"/><stop offset="1" stop-color="#d8bd7f"/></linearGradient><filter id="s"><feDropShadow dx="0" dy="13" stdDeviation="10" flood-color="#31543f" flood-opacity=".22"/></filter></defs><circle cx="160" cy="160" r="145" fill="#fffdf7" stroke="#d9c79d" stroke-width="5"/><circle cx="160" cy="160" r="126" fill="#e7f3df" opacity=".38"/><g filter="url(#s)"><path d="M137 172l23 87 23-87" fill="#d2b16e"/><g><circle cx="112" cy="113" r="38" fill="#d7a752"/><circle cx="163" cy="91" r="41" fill="#f0cf7b"/><circle cx="207" cy="122" r="36" fill="#c98289"/><circle cx="151" cy="148" r="42" fill="#8fb17d"/></g><path d="M96 165c30-11 51-8 64 12-30 14-51 10-64-12zm128 3c-29-12-50-9-63 11 29 14 50 10 63-11z" fill="#6d9465"/><path d="M112 194l48 25 48-25-18 70h-60z" fill="#f4e4c0" stroke="#a77b39" stroke-width="5"/></g><path d="M39 75c18 0 31-10 39-30M281 245c-18 0-31 10-39 30" fill="none" stroke="#739a76" stroke-width="7" stroke-linecap="round"/><circle cx="55" cy="58" r="5" fill="#b8944f"/><circle cx="265" cy="262" r="5" fill="#b8944f"/></svg>