<svg xmlns="http://www.w3.org/2000/svg" viewBox="0 0 320 320"><defs><linearGradient id="main" x1="0" y1="0" x2="1" y2="1"><stop stop-color="#e2ece0"/><stop offset="1" stop-color="#506d58"/></linearGradient><linearGradient id="ring"><stop stop-color="#506d58"/><stop offset="1" stop-color="#d8bd7f"/></linearGradient><filter id="s"><feDropShadow dx="0" dy="13" stdDeviation="10" flood-color="#31543f" flood-opacity=".22"/></filter></defs><circle cx="160" cy="160" r="145" fill="#fffdf7" stroke="#d9c79d" stroke-width="5"/><circle cx="160" cy="160" r="126" fill="#e2ece0" opacity=".38"/><g filter="url(#s)"><path d="M70 124h42V83h42v41h44V83h42v41h20v133H60V124z" fill="url(#main)" stroke="#f1f7ed" stroke-width="6"/><path d="M119 257v-62c0-25 18-42 41-42s41 17 41 42v62" fill="#e5f0e1"/><path d="M88 153h24v27H88zm120 0h24v27h-24z" fill="#d3e4cf"/><path d="M49 257h222" stroke="#b8944f" stroke-width="11" stroke-linecap="round"/></g><path d="M39 75c18 0 31-10 39-30M281 245c-18 0-31 10-39 30" fill="none" stroke="#739a76" stroke-width="7" stroke-linecap="round"/><circle cx="55" cy="58" r="5" fill="#b8944f"/><circle cx="265" cy="262" r="5" fill="#b8944f"/></svg>