<svg xmlns="http://www.w3.org/2000/svg" viewBox="0 0 320 320"><defs><linearGradient id="main" x1="0" y1="0" x2="1" y2="1"><stop stop-color="#f7e5ca"/><stop offset="1" stop-color="#8a5b37"/></linearGradient><linearGradient id="ring"><stop stop-color="#8a5b37"/><stop offset="1" stop-color="#d8bd7f"/></linearGradient><filter id="s"><feDropShadow dx="0" dy="13" stdDeviation="10" flood-color="#31543f" flood-opacity=".22"/></filter></defs><circle cx="160" cy="160" r="145" fill="#fffdf7" stroke="#d9c79d" stroke-width="5"/><circle cx="160" cy="160" r="126" fill="#f7e5ca" opacity=".38"/><g filter="url(#s)"><path d="M95 117h121v68c0 35-27 59-60 59s-61-24-61-59z" fill="url(#main)"/><path d="M216 135h19c25 0 25 42 0 42h-19" fill="none" stroke="#8a5b37" stroke-width="15"/><path d="M128 99c-13-18 13-25 0-43M161 99c-13-18 13-25 0-43M194 99c-13-18 13-25 0-43" fill="none" stroke="#cfb18e" stroke-width="7" stroke-linecap="round"/><path d="M82 250h158" stroke="#8a5b37" stroke-width="13" stroke-linecap="round"/></g><path d="M39 75c18 0 31-10 39-30M281 245c-18 0-31 10-39 30" fill="none" stroke="#739a76" stroke-width="7" stroke-linecap="round"/><circle cx="55" cy="58" r="5" fill="#b8944f"/><circle cx="265" cy="262" r="5" fill="#b8944f"/></svg>