<svg xmlns="http://www.w3.org/2000/svg" viewBox="0 0 320 320"><defs><linearGradient id="main" x1="0" y1="0" x2="1" y2="1"><stop stop-color="#ffe8e4"/><stop offset="1" stop-color="#b85f67"/></linearGradient><linearGradient id="ring"><stop stop-color="#b85f67"/><stop offset="1" stop-color="#d8bd7f"/></linearGradient><filter id="s"><feDropShadow dx="0" dy="13" stdDeviation="10" flood-color="#31543f" flood-opacity=".22"/></filter></defs><circle cx="160" cy="160" r="145" fill="#fffdf7" stroke="#d9c79d" stroke-width="5"/><circle cx="160" cy="160" r="126" fill="#ffe8e4" opacity=".38"/><g filter="url(#s)"><rect x="77" y="126" width="166" height="118" rx="16" fill="url(#main)"/><rect x="65" y="105" width="190" height="44" rx="13" fill="#d77b83"/><path d="M160 105v139" stroke="#fff2da" stroke-width="15"/><path d="M157 105c-35-4-62-38-40-55 22-16 43 15 43 45m3 10c35-4 62-38 40-55-22-16-43 15-43 45" fill="none" stroke="#b85f67" stroke-width="12" stroke-linecap="round"/></g><path d="M39 75c18 0 31-10 39-30M281 245c-18 0-31 10-39 30" fill="none" stroke="#739a76" stroke-width="7" stroke-linecap="round"/><circle cx="55" cy="58" r="5" fill="#b8944f"/><circle cx="265" cy="262" r="5" fill="#b8944f"/></svg>