<svg xmlns="http://www.w3.org/2000/svg" viewBox="0 0 320 320"><defs><linearGradient id="main" x1="0" y1="0" x2="1" y2="1"><stop stop-color="#f6dfb9"/><stop offset="1" stop-color="#a86d36"/></linearGradient><linearGradient id="ring"><stop stop-color="#a86d36"/><stop offset="1" stop-color="#d8bd7f"/></linearGradient><filter id="s"><feDropShadow dx="0" dy="13" stdDeviation="10" flood-color="#31543f" flood-opacity=".22"/></filter></defs><circle cx="160" cy="160" r="145" fill="#fffdf7" stroke="#d9c79d" stroke-width="5"/><circle cx="160" cy="160" r="126" fill="#f6dfb9" opacity=".38"/><g filter="url(#s)"><circle cx="160" cy="150" r="91" fill="#c98a44"/><g fill="#e4b86a"><circle cx="160" cy="72" r="31"/><circle cx="221" cy="101" r="31"/><circle cx="238" cy="163" r="31"/><circle cx="205" cy="217" r="31"/><circle cx="139" cy="237" r="31"/><circle cx="84" cy="198" r="31"/><circle cx="81" cy="132" r="31"/><circle cx="111" cy="88" r="31"/></g><circle cx="160" cy="157" r="68" fill="#f3d29a"/><circle cx="136" cy="145" r="6" fill="#50351e"/><circle cx="184" cy="145" r="6" fill="#50351e"/><path d="M151 168h18l-9 12zM132 190c18 16 38 16 56 0" fill="#6f4727" stroke="#6f4727" stroke-width="5" stroke-linecap="round"/></g><path d="M39 75c18 0 31-10 39-30M281 245c-18 0-31 10-39 30" fill="none" stroke="#739a76" stroke-width="7" stroke-linecap="round"/><circle cx="55" cy="58" r="5" fill="#b8944f"/><circle cx="265" cy="262" r="5" fill="#b8944f"/></svg>