<svg xmlns="http://www.w3.org/2000/svg" viewBox="0 0 320 320"><defs><linearGradient id="main" x1="0" y1="0" x2="1" y2="1"><stop stop-color="#e1f1e5"/><stop offset="1" stop-color="#3d7c5a"/></linearGradient><linearGradient id="ring"><stop stop-color="#3d7c5a"/><stop offset="1" stop-color="#d8bd7f"/></linearGradient><filter id="s"><feDropShadow dx="0" dy="13" stdDeviation="10" flood-color="#31543f" flood-opacity=".22"/></filter></defs><circle cx="160" cy="160" r="145" fill="#fffdf7" stroke="#d9c79d" stroke-width="5"/><circle cx="160" cy="160" r="126" fill="#e1f1e5" opacity=".38"/><g filter="url(#s)"><path d="M160 54c44 27 56 82 38 139l-38 45-38-45c-18-57-6-112 38-139z" fill="url(#main)" stroke="#fff" stroke-width="5"/><circle cx="160" cy="126" r="24" fill="#d9efe4" stroke="#2f6f4d" stroke-width="8"/><path d="M122 177l-37 40 41 3m72-43l37 40-41 3" fill="#6f9b78"/><path d="M143 229l17 47 17-47" fill="#d9a93a"/></g><path d="M39 75c18 0 31-10 39-30M281 245c-18 0-31 10-39 30" fill="none" stroke="#739a76" stroke-width="7" stroke-linecap="round"/><circle cx="55" cy="58" r="5" fill="#b8944f"/><circle cx="265" cy="262" r="5" fill="#b8944f"/></svg>