<svg xmlns="http://www.w3.org/2000/svg" viewBox="0 0 320 320"><defs><linearGradient id="main" x1="0" y1="0" x2="1" y2="1"><stop stop-color="#ffe3e8"/><stop offset="1" stop-color="#b65f6f"/></linearGradient><linearGradient id="ring"><stop stop-color="#b65f6f"/><stop offset="1" stop-color="#d8bd7f"/></linearGradient><filter id="s"><feDropShadow dx="0" dy="13" stdDeviation="10" flood-color="#31543f" flood-opacity=".22"/></filter></defs><circle cx="160" cy="160" r="145" fill="#fffdf7" stroke="#d9c79d" stroke-width="5"/><circle cx="160" cy="160" r="126" fill="#ffe3e8" opacity=".38"/><g filter="url(#s)"><path d="M159 222c-10-64 4-104 43-143" fill="none" stroke="#4f7e55" stroke-width="14" stroke-linecap="round"/><path d="M164 170c-30-11-52-4-68 22 32 5 54-2 68-22zm11 23c24-19 48-21 72-5-23 20-47 22-72 5z" fill="#70a06b"/><path d="M163 76c-46-41-94 26-51 59-18 54 72 65 78 11 55 11 65-70 17-79-6-42-62-44-74-3z" fill="url(#main)"/><path d="M146 92c32-20 68 7 49 36-21 31-66 12-49-36z" fill="#d47a88"/></g><path d="M39 75c18 0 31-10 39-30M281 245c-18 0-31 10-39 30" fill="none" stroke="#739a76" stroke-width="7" stroke-linecap="round"/><circle cx="55" cy="58" r="5" fill="#b8944f"/><circle cx="265" cy="262" r="5" fill="#b8944f"/></svg>